<svg id="Artwork" xmlns="http://www.w3.org/2000/svg" width="393.9855" height="49.7811" viewBox="0 0 393.9855 49.7811"><defs><style>.cls-1,.cls-2{fill:#fff;stroke:#fff;stroke-linecap:square;stroke-miterlimit:25;}.cls-2{stroke-width:0.25px;}</style></defs><path class="cls-1" d="M30.6419,2.9005c.6655,1.7674,16.032,42.563,17.3922,46.1747H37.5811c-.5662-1.5159-3.1937-8.5367-3.1937-8.5367H14.7592s-2.7987,7.0541-3.3875,8.5367H.9786c1.3951-3.6275,17.0862-44.4246,17.76-46.1747ZM17.2209,33.726h14.74l-7.2588-21.78Z" transform="translate(-0.2507 -1.0973)"/><path class="cls-1" d="M73.6685,36.0894c0-4.533-5.4824-6.0835-8.4273-6.9153l-.4021-.1141c-8.4968-2.4184-12.22-4.3262-12.22-12.4565,0-8.9755,6.2144-15.0062,15.4633-15.0062a32.08,32.08,0,0,1,13.3656,3.24c-.8542,1.664-2.6767,5.215-3.611,7.036a14.4768,14.4768,0,0,0-7.9306-2.5508c-3.4193,0-6.9557,2.0894-6.9557,5.586,0,3.9371,4.3435,5.3416,6.6773,6.0951l3.3064.9936C80.693,24.2868,84,27.8782,84,34.0037c0,5.4558-1.5345,9.5274-4.5612,12.1a20.0078,20.0078,0,0,1-12.9863,4.2742,28.7739,28.7739,0,0,1-15.3015-4.67c.8469-1.5938,2.9731-5.5918,3.9921-7.5067,3.66,2.8464,7.2291,4.3217,10.8537,4.3217C69.6918,42.5229,73.6685,40.51,73.6685,36.0894Z" transform="translate(-0.2507 -1.0973)"/><path class="cls-1" d="M116.7219,2.9005v7.8568H106.1648V49.0752h-9.811V10.7573H85.7966V2.9005Z" transform="translate(-0.2507 -1.0973)"/><path class="cls-1" d="M151.2776,2.9005v7.8568H140.7205V49.0752H130.91V10.7573H120.3524V2.9005Z" transform="translate(-0.2507 -1.0973)"/><path class="cls-1" d="M173.678,2.9005c8.9489,0,13.1158,3.5878,13.1158,11.292,0,4.3522-1.4608,7.12-4.5981,8.716L177.92,25.0824l4.7572.7464c5.8015.7506,8.7436,4.4664,8.7436,11.0416,0,10.62-10.2189,12.2048-16.31,12.2048h-18.2V2.9005ZM168.2034,9.713h-1.4811V22.19h2.9144c2.0756,0,8.3891,0,8.3891-6.2367,0-6.24-6.244-6.24-8.91-6.24Zm2.3286,19.0216-1.0254.0072h-2.7843V42.2627h3.49c3.0462.0058,7.2189.0115,9.6041-2.3679a5.8753,5.8753,0,0,0,1.6633-4.3275,6.279,6.279,0,0,0-1.7371-4.6545C177.4646,28.6593,173.62,28.7012,170.532,28.7346Z" transform="translate(-0.2507 -1.0973)"/><path class="cls-1" d="M202.37,43.5311c-4.9119-4.439-7.4011-10.3171-7.4011-17.4782A24.15,24.15,0,0,1,201.7828,9.1a25.1351,25.1351,0,0,1,17.6417-7.5024,27.9978,27.9978,0,0,1,10.1841,2.0734V14.3349a15.7826,15.7826,0,0,0-9.727-3.3172c-8.4484,0-14.58,6.35-14.58,15.1,0,8.7377,6.0764,14.84,14.7749,14.84a16.1536,16.1536,0,0,0,9.5318-3.2876v10.81c-3.6059,1.1065-6.3757,1.8977-9.7922,1.8977A25.9127,25.9127,0,0,1,202.37,43.5311Z" transform="translate(-0.2507 -1.0973)"/><path class="cls-2" d="M248.8889,3.9592H245.87V23.3553h-1.8688V3.9592h-3.0187V2.16h7.906Z" transform="translate(-0.2507 -1.0973)"/><path class="cls-2" d="M259.09,3.9592H254.63v7.4772h4.3261v1.8H254.63v8.32H259.09v1.7992H252.76V2.16H259.09Z" transform="translate(-0.2507 -1.0973)"/><path class="cls-2" d="M271.2675,22.7652a4.6263,4.6263,0,0,1-2.563.8723c-4.7268,0-5.421-6.4929-5.421-10.1212,0-3.4287.1071-11.6378,5.6076-11.6378a4.19,4.19,0,0,1,2.3764.6748V4.7178a3.8615,3.8615,0,0,0-2.3488-.9277c-3.2588,0-3.713,4.9754-3.713,8.9119,0,2.4733,0,9.0247,3.58,9.0247a4.2779,4.2779,0,0,0,2.482-.9561Z" transform="translate(-0.2507 -1.0973)"/><path class="cls-2" d="M284.1144,23.3553h-1.87V12.42H277.623V23.3553h-1.8687V2.16h1.8687v8.4622h4.6212V2.16h1.87Z" transform="translate(-0.2507 -1.0973)"/><path class="cls-2" d="M297.7872,23.3553h-1.63L291.6182,9.1034c-.295-.8715-.4541-1.8268-.6941-2.7272h-.1071c.081,1.3776.2141,2.7272.2141,4.1049V23.3553h-1.63V2.16h1.63l4.62,14.73c.24.7318.4267,1.4623.6133,2.1928h.081c-.0536-.9257-.1881-1.8833-.1881-2.81V2.16h1.63Z" transform="translate(-0.2507 -1.0973)"/><path class="cls-2" d="M312.3943,12.7577c0,3.9645-.2661,10.88-4.94,10.88-4.4072,0-4.9423-5.9317-4.9423-10.88,0-5.369.6683-10.8792,4.9423-10.8792C311.9952,1.8785,312.3943,8.0909,312.3943,12.7577Zm-7.9581,0c0,3.7389.1346,8.969,3.0186,8.969s3.0172-5.23,3.0172-8.969S310.339,3.79,307.4548,3.79C304.5708,3.65,304.4362,9.0187,304.4362,12.7577Z" transform="translate(-0.2507 -1.0973)"/><path class="cls-2" d="M318.9638,21.5561h4.3811v1.7992h-6.25V2.16h1.8687Z" transform="translate(-0.2507 -1.0973)"/><path class="cls-2" d="M336.3234,12.7577c0,3.9645-.266,10.88-4.9409,10.88-4.4056,0-4.9408-5.9317-4.9408-10.88,0-5.369.6682-10.8792,4.9408-10.8792C335.9242,1.8785,336.3234,8.0909,336.3234,12.7577Zm-7.958,0c0,3.7389.133,8.969,3.0171,8.969s3.0187-5.23,3.0187-8.969S334.2667,3.79,331.3825,3.79C328.4984,3.65,328.3654,9.0187,328.3654,12.7577Z" transform="translate(-0.2507 -1.0973)"/><path class="cls-2" d="M344.8166,12.1675H349.41v3.9074c0,3.3463-.162,7.5626-4.3276,7.5626-4.2466,0-4.6458-4.6951-4.6458-11.3853,0-5.0039.5612-10.3737,4.8339-10.3737,2.4038,0,3.6043,1.6866,4.1105,3.9922l-1.8412.7586c-.2127-1.2648-.7217-2.8392-2.1884-2.8392-2.7785.0281-2.9926,4.5547-2.9926,8.2936,0,7.8437.9344,9.643,2.8841,9.643,2.11,0,2.2969-1.6314,2.2969-6.1573V13.9669h-2.7236Z" transform="translate(-0.2507 -1.0973)"/><path class="cls-2" d="M358.7845,14.079v9.2763h-1.87V14.079l-3.9-11.9191h2.0032L357.02,9.3c.2675.9271.4817,1.8839.7752,2.8392h.1056c.1881-.9836.3211-1.996.59-2.9521L360.4666,2.16h2.0019Z" transform="translate(-0.2507 -1.0973)"/><path class="cls-2" d="M243.9973,49.85V28.6521H246.08c2.8841,0,5.4486.282,5.4486,5.5107,0,4.1049-1.3611,5.5383-5.18,5.5383h-.4816V49.85Zm1.87-11.9472h.72c2.618,0,2.9377-1.014,3.0187-3.74,0-2.9231-.7492-3.7113-3.3657-3.7113h-.3732Z" transform="translate(-0.2507 -1.0973)"/><path class="cls-2" d="M255.6682,49.85V28.6521h2.0032c2.8032,0,5.5007.2257,5.5007,5.3978,0,2.6991-.56,5.3417-3.791,5.453L263.84,49.85h-1.9773L257.59,39.4769h-.0535V49.85Zm1.8687-11.9761h.6683c2.6166,0,3.0446-.9575,3.0446-3.74,0-3.344-.9618-3.6824-3.3383-3.6824h-.3746Z" transform="translate(-0.2507 -1.0973)"/><path class="cls-2" d="M277.2469,39.2513c0,3.963-.2661,10.8783-4.9408,10.8783-4.4072,0-4.941-5.93-4.941-10.8783,0-5.369.6683-10.88,4.941-10.88C276.8463,28.3715,277.2469,34.5852,277.2469,39.2513Zm-7.958,0c0,3.7389.133,8.9675,3.0172,8.9675s3.0172-5.2286,3.0172-8.9675-.1332-8.9677-3.0172-8.9677C269.4219,30.1432,269.2889,35.5122,269.2889,39.2513Z" transform="translate(-0.2507 -1.0973)"/><path class="cls-2" d="M288.41,30.4515h-4.5678v7.4778H288.17v1.7992h-4.3277V49.85h-1.8687V28.6521H288.41Z" transform="translate(-0.2507 -1.0973)"/><path class="cls-2" d="M299.5721,30.4515h-4.4593v7.4778h4.3261v1.7992h-4.3261V48.05h4.4593V49.85h-6.3295V28.6521h6.3295Z" transform="translate(-0.2507 -1.0973)"/><path class="cls-2" d="M311.3761,31.9991a3.86,3.86,0,0,0-2.9637-1.7155c-1.87,0-2.9116,1.6315-2.9116,3.4294,0,2.4748,1.71,3.626,3.4454,4.8642,1.71,1.2642,3.4192,2.6136,3.4192,5.5369,0,3.0924-1.8977,6.0155-5.0479,6.0155a5.0791,5.0791,0,0,1-3.1792-1.066v-2.56a4.5253,4.5253,0,0,0,3.26,1.7154c1.9758,0,3.0693-1.8281,3.0432-3.7389.0261-2.4748-1.71-3.57-3.4178-4.8352-1.71-1.2367-3.4453-2.6151-3.4453-5.65,0-2.8406,1.6562-5.6235,4.62-5.6235a5.2362,5.2362,0,0,1,3.1778,1.1252Z" transform="translate(-0.2507 -1.0973)"/><path class="cls-2" d="M323.8757,31.9991a3.862,3.862,0,0,0-2.965-1.7155c-1.8687,0-2.91,1.6315-2.91,3.4294,0,2.4748,1.7083,3.626,3.4438,4.8642,1.71,1.2642,3.418,2.6136,3.418,5.5369,0,3.0924-1.8948,6.0155-5.0466,6.0155a5.0749,5.0749,0,0,1-3.1777-1.066v-2.56a4.5168,4.5168,0,0,0,3.2572,1.7154c1.9758,0,3.0723-1.8281,3.0447-3.7389.0276-2.4748-1.7081-3.57-3.4178-4.8352-1.71-1.2367-3.4453-2.6151-3.4453-5.65,0-2.8406,1.6562-5.6235,4.62-5.6235a5.2494,5.2494,0,0,1,3.179,1.1252Z" transform="translate(-0.2507 -1.0973)"/><path class="cls-2" d="M331.2466,49.85h-1.87V28.6521h1.87Z" transform="translate(-0.2507 -1.0973)"/><path class="cls-2" d="M345.8522,39.2513c0,3.963-.2647,10.8783-4.9393,10.8783-4.4072,0-4.9395-5.93-4.9395-10.8783,0-5.369.6653-10.88,4.9395-10.88C345.4516,28.3715,345.8522,34.5852,345.8522,39.2513Zm-7.958,0c0,3.7389.1345,8.9675,3.0187,8.9675s3.0186-5.2286,3.0186-8.9675-.1346-8.9677-3.0186-8.9677C338.0287,30.1432,337.8942,35.5122,337.8942,39.2513Z" transform="translate(-0.2507 -1.0973)"/><path class="cls-2" d="M358.9667,49.85h-1.63l-4.54-14.2527c-.2936-.8737-.4528-1.8283-.6957-2.7279h-.1056c.081,1.377.214,2.7279.214,4.1047V49.85h-1.6286V28.6521h1.6286l4.6212,14.73c.24.732.4254,1.4638.6134,2.1943h.081c-.055-.9272-.1881-1.8847-.1881-2.81V28.6521h1.63Z" transform="translate(-0.2507 -1.0973)"/><path class="cls-2" d="M372.4544,49.85H370.45L369.7,45.4909h-4.2727l-.72,4.3595h-2.0032l3.953-21.1983H368.42Zm-3.0462-6.0734-1.3349-8.1243c-.2416-1.4335-.3457-2.8958-.5078-4.3277h-.107c-.1852,1.4319-.3212,2.8942-.5337,4.3277L365.75,43.777Z" transform="translate(-0.2507 -1.0973)"/><path class="cls-2" d="M378.0344,48.05h4.38V49.85h-6.2485V28.6521h1.8687Z" transform="translate(-0.2507 -1.0973)"/><path class="cls-2" d="M393.1232,31.9991a3.862,3.862,0,0,0-2.965-1.7155c-1.8687,0-2.91,1.6315-2.91,3.4294,0,2.4748,1.7082,3.626,3.4452,4.8642,1.71,1.2642,3.4178,2.6136,3.4178,5.5369,0,3.0924-1.8961,6.0155-5.0464,6.0155a5.0793,5.0793,0,0,1-3.1792-1.066v-2.56a4.52,4.52,0,0,0,3.2572,1.7154c1.9788,0,3.0723-1.8281,3.0433-3.7389.029-2.4748-1.7067-3.57-3.4164-4.8352-1.71-1.2367-3.4453-2.6151-3.4453-5.65,0-2.8406,1.6562-5.6235,4.62-5.6235a5.243,5.243,0,0,1,3.179,1.1252Z" transform="translate(-0.2507 -1.0973)"/></svg>